<svg xmlns="http://www.w3.org/2000/svg" width="960" height="266" viewBox="0 0 960 266">
<rect width="100%" height="100%" fill="#ffffff"/>
<text x="24" y="30" font-family="Inter, Arial, sans-serif" font-size="22" font-weight="700" fill="#111827">BEAM 128K on TrustedRouter</text>
<text x="24" y="50" font-family="Inter, Arial, sans-serif" font-size="12" fill="#4b5563">Long-context memory (128K). Rubric-based score avg across 10 categories. Judge: openai/gpt-4.1</text>
<text x="24" y="69" font-family="Inter, Arial, sans-serif" font-size="12" fill="#111827">1. moonshotai/kimi-k2.7-code</text>
<rect x="300" y="56" width="380" height="16" rx="4" fill="#e5e7eb"/>
<rect x="300" y="56" width="275" height="16" rx="4" fill="#2563eb"/>
<text x="692" y="69" font-family="Inter, Arial, sans-serif" font-size="12" font-weight="700" fill="#111827">72.5</text>
<text x="24" y="96" font-family="Inter, Arial, sans-serif" font-size="12" fill="#111827">2. z-ai/glm-5.2</text>
<rect x="300" y="83" width="380" height="16" rx="4" fill="#e5e7eb"/>
<rect x="300" y="83" width="272" height="16" rx="4" fill="#2563eb"/>
<text x="692" y="96" font-family="Inter, Arial, sans-serif" font-size="12" font-weight="700" fill="#111827">71.8</text>
<text x="24" y="123" font-family="Inter, Arial, sans-serif" font-size="12" fill="#111827">3. deepseek/deepseek-v4-pro</text>
<rect x="300" y="110" width="380" height="16" rx="4" fill="#e5e7eb"/>
<rect x="300" y="110" width="261" height="16" rx="4" fill="#2563eb"/>
<text x="692" y="123" font-family="Inter, Arial, sans-serif" font-size="12" font-weight="700" fill="#111827">68.7</text>
<text x="24" y="150" font-family="Inter, Arial, sans-serif" font-size="12" fill="#111827">4. z-ai/glm-5.1</text>
<rect x="300" y="137" width="380" height="16" rx="4" fill="#e5e7eb"/>
<rect x="300" y="137" width="257" height="16" rx="4" fill="#2563eb"/>
<text x="692" y="150" font-family="Inter, Arial, sans-serif" font-size="12" font-weight="700" fill="#111827">67.8</text>
<text x="24" y="177" font-family="Inter, Arial, sans-serif" font-size="12" fill="#111827">5. minimax/minimax-m3</text>
<rect x="300" y="164" width="380" height="16" rx="4" fill="#e5e7eb"/>
<rect x="300" y="164" width="239" height="16" rx="4" fill="#f97316"/>
<text x="692" y="177" font-family="Inter, Arial, sans-serif" font-size="12" font-weight="700" fill="#111827">63</text>
<text x="24" y="204" font-family="Inter, Arial, sans-serif" font-size="12" fill="#111827">6. google/gemma-4-31b-it</text>
<rect x="300" y="191" width="380" height="16" rx="4" fill="#e5e7eb"/>
<rect x="300" y="191" width="238" height="16" rx="4" fill="#f97316"/>
<text x="692" y="204" font-family="Inter, Arial, sans-serif" font-size="12" font-weight="700" fill="#111827">62.7</text>
</svg>