<svg xmlns="http://www.w3.org/2000/svg" width="960" height="320" viewBox="0 0 960 320">
<rect width="100%" height="100%" fill="#ffffff"/>
<text x="24" y="30" font-family="Inter, Arial, sans-serif" font-size="22" font-weight="700" fill="#111827">BEAM 128K on TrustedRouter</text>
<text x="24" y="50" font-family="Inter, Arial, sans-serif" font-size="12" fill="#4b5563">Long-context memory (128K). Rubric-based score avg across 10 categories. Judge: openai/gpt-4.1-mini</text>
<text x="24" y="69" font-family="Inter, Arial, sans-serif" font-size="12" fill="#111827">1. z-ai/glm-5.2</text>
<rect x="300" y="56" width="380" height="16" rx="4" fill="#e5e7eb"/>
<rect x="300" y="56" width="336" height="16" rx="4" fill="#2563eb"/>
<text x="692" y="69" font-family="Inter, Arial, sans-serif" font-size="12" font-weight="700" fill="#111827">88.6</text>
<text x="24" y="96" font-family="Inter, Arial, sans-serif" font-size="12" fill="#111827">2. moonshotai/kimi-k2.7-code</text>
<rect x="300" y="83" width="380" height="16" rx="4" fill="#e5e7eb"/>
<rect x="300" y="83" width="332" height="16" rx="4" fill="#2563eb"/>
<text x="692" y="96" font-family="Inter, Arial, sans-serif" font-size="12" font-weight="700" fill="#111827">87.6</text>
<text x="24" y="123" font-family="Inter, Arial, sans-serif" font-size="12" fill="#111827">3. z-ai/glm-5.1</text>
<rect x="300" y="110" width="380" height="16" rx="4" fill="#e5e7eb"/>
<rect x="300" y="110" width="323" height="16" rx="4" fill="#2563eb"/>
<text x="692" y="123" font-family="Inter, Arial, sans-serif" font-size="12" font-weight="700" fill="#111827">85.1</text>
<text x="24" y="150" font-family="Inter, Arial, sans-serif" font-size="12" fill="#111827">4. deepseek/deepseek-v4-pro</text>
<rect x="300" y="137" width="380" height="16" rx="4" fill="#e5e7eb"/>
<rect x="300" y="137" width="297" height="16" rx="4" fill="#2563eb"/>
<text x="692" y="150" font-family="Inter, Arial, sans-serif" font-size="12" font-weight="700" fill="#111827">78.4</text>
<text x="24" y="177" font-family="Inter, Arial, sans-serif" font-size="12" fill="#111827">5. minimax/minimax-m3</text>
<rect x="300" y="164" width="380" height="16" rx="4" fill="#e5e7eb"/>
<rect x="300" y="164" width="250" height="16" rx="4" fill="#2563eb"/>
<text x="692" y="177" font-family="Inter, Arial, sans-serif" font-size="12" font-weight="700" fill="#111827">66</text>
<text x="24" y="204" font-family="Inter, Arial, sans-serif" font-size="12" fill="#111827">6. google/gemma-4-31b-it</text>
<rect x="300" y="191" width="380" height="16" rx="4" fill="#e5e7eb"/>
<rect x="300" y="191" width="240" height="16" rx="4" fill="#f97316"/>
<text x="692" y="204" font-family="Inter, Arial, sans-serif" font-size="12" font-weight="700" fill="#111827">63.2</text>
<text x="24" y="231" font-family="Inter, Arial, sans-serif" font-size="12" fill="#111827">7. meta-llama/llama-4-maverick-17b-128e-instruct-fp8</text>
<rect x="300" y="218" width="380" height="16" rx="4" fill="#e5e7eb"/>
<rect x="300" y="218" width="193" height="16" rx="4" fill="#f97316"/>
<text x="692" y="231" font-family="Inter, Arial, sans-serif" font-size="12" font-weight="700" fill="#111827">51</text>
<text x="24" y="258" font-family="Inter, Arial, sans-serif" font-size="12" fill="#111827">8. openai/gpt-4.1-nano</text>
<rect x="300" y="245" width="380" height="16" rx="4" fill="#e5e7eb"/>
<rect x="300" y="245" width="189" height="16" rx="4" fill="#f97316"/>
<text x="692" y="258" font-family="Inter, Arial, sans-serif" font-size="12" font-weight="700" fill="#111827">49.9</text>
</svg>