<svg xmlns="http://www.w3.org/2000/svg" width="960" height="428" viewBox="0 0 960 428">
<rect width="100%" height="100%" fill="#ffffff"/>
<text x="24" y="30" font-family="Inter, Arial, sans-serif" font-size="22" font-weight="700" fill="#111827">GSM8K on TrustedRouter</text>
<text x="24" y="50" font-family="Inter, Arial, sans-serif" font-size="12" fill="#4b5563">Grade-school math word problems, exact-match accuracy (no judge). Higher is better.</text>
<text x="24" y="69" font-family="Inter, Arial, sans-serif" font-size="12" fill="#111827">1. deepseek/deepseek-v4-flash</text>
<rect x="300" y="56" width="380" height="16" rx="4" fill="#e5e7eb"/>
<rect x="300" y="56" width="380" height="16" rx="4" fill="#2563eb"/>
<text x="692" y="69" font-family="Inter, Arial, sans-serif" font-size="12" font-weight="700" fill="#111827">100%</text>
<text x="24" y="96" font-family="Inter, Arial, sans-serif" font-size="12" fill="#111827">2. deepseek/deepseek-v4-pro</text>
<rect x="300" y="83" width="380" height="16" rx="4" fill="#e5e7eb"/>
<rect x="300" y="83" width="380" height="16" rx="4" fill="#2563eb"/>
<text x="692" y="96" font-family="Inter, Arial, sans-serif" font-size="12" font-weight="700" fill="#111827">100%</text>
<text x="24" y="123" font-family="Inter, Arial, sans-serif" font-size="12" fill="#111827">3. moonshotai/kimi-k2.7-code</text>
<rect x="300" y="110" width="380" height="16" rx="4" fill="#e5e7eb"/>
<rect x="300" y="110" width="380" height="16" rx="4" fill="#2563eb"/>
<text x="692" y="123" font-family="Inter, Arial, sans-serif" font-size="12" font-weight="700" fill="#111827">100%</text>
<text x="24" y="150" font-family="Inter, Arial, sans-serif" font-size="12" fill="#111827">4. tencent/hy3-preview</text>
<rect x="300" y="137" width="380" height="16" rx="4" fill="#e5e7eb"/>
<rect x="300" y="137" width="380" height="16" rx="4" fill="#2563eb"/>
<text x="692" y="150" font-family="Inter, Arial, sans-serif" font-size="12" font-weight="700" fill="#111827">100%</text>
<text x="24" y="177" font-family="Inter, Arial, sans-serif" font-size="12" fill="#111827">5. xiaomi/mimo-v2.5</text>
<rect x="300" y="164" width="380" height="16" rx="4" fill="#e5e7eb"/>
<rect x="300" y="164" width="380" height="16" rx="4" fill="#2563eb"/>
<text x="692" y="177" font-family="Inter, Arial, sans-serif" font-size="12" font-weight="700" fill="#111827">100%</text>
<text x="24" y="204" font-family="Inter, Arial, sans-serif" font-size="12" fill="#111827">6. xiaomi/mimo-v2.5-pro</text>
<rect x="300" y="191" width="380" height="16" rx="4" fill="#e5e7eb"/>
<rect x="300" y="191" width="380" height="16" rx="4" fill="#2563eb"/>
<text x="692" y="204" font-family="Inter, Arial, sans-serif" font-size="12" font-weight="700" fill="#111827">100%</text>
<text x="24" y="231" font-family="Inter, Arial, sans-serif" font-size="12" fill="#111827">7. anthropic/claude-opus-4.8</text>
<rect x="300" y="218" width="380" height="16" rx="4" fill="#e5e7eb"/>
<rect x="300" y="218" width="367" height="16" rx="4" fill="#2563eb"/>
<text x="692" y="231" font-family="Inter, Arial, sans-serif" font-size="12" font-weight="700" fill="#111827">96.7%</text>
<text x="24" y="258" font-family="Inter, Arial, sans-serif" font-size="12" fill="#111827">8. google/gemini-3.1-pro-preview</text>
<rect x="300" y="245" width="380" height="16" rx="4" fill="#e5e7eb"/>
<rect x="300" y="245" width="367" height="16" rx="4" fill="#2563eb"/>
<text x="692" y="258" font-family="Inter, Arial, sans-serif" font-size="12" font-weight="700" fill="#111827">96.7%</text>
<text x="24" y="285" font-family="Inter, Arial, sans-serif" font-size="12" fill="#111827">9. minimax/minimax-m3</text>
<rect x="300" y="272" width="380" height="16" rx="4" fill="#e5e7eb"/>
<rect x="300" y="272" width="367" height="16" rx="4" fill="#2563eb"/>
<text x="692" y="285" font-family="Inter, Arial, sans-serif" font-size="12" font-weight="700" fill="#111827">96.7%</text>
<text x="24" y="312" font-family="Inter, Arial, sans-serif" font-size="12" fill="#111827">10. openai/gpt-5.5</text>
<rect x="300" y="299" width="380" height="16" rx="4" fill="#e5e7eb"/>
<rect x="300" y="299" width="367" height="16" rx="4" fill="#2563eb"/>
<text x="692" y="312" font-family="Inter, Arial, sans-serif" font-size="12" font-weight="700" fill="#111827">96.7%</text>
<text x="24" y="339" font-family="Inter, Arial, sans-serif" font-size="12" fill="#111827">11. z-ai/glm-5.1</text>
<rect x="300" y="326" width="380" height="16" rx="4" fill="#e5e7eb"/>
<rect x="300" y="326" width="367" height="16" rx="4" fill="#2563eb"/>
<text x="692" y="339" font-family="Inter, Arial, sans-serif" font-size="12" font-weight="700" fill="#111827">96.7%</text>
<text x="24" y="366" font-family="Inter, Arial, sans-serif" font-size="12" fill="#111827">12. z-ai/glm-5</text>
<rect x="300" y="353" width="380" height="16" rx="4" fill="#e5e7eb"/>
<rect x="300" y="353" width="354" height="16" rx="4" fill="#2563eb"/>
<text x="692" y="366" font-family="Inter, Arial, sans-serif" font-size="12" font-weight="700" fill="#111827">93.3%</text>
</svg>