<svg xmlns="http://www.w3.org/2000/svg" width="960" height="374" viewBox="0 0 960 374">
<rect width="100%" height="100%" fill="#ffffff"/>
<text x="24" y="30" font-family="Inter, Arial, sans-serif" font-size="22" font-weight="700" fill="#111827">IFEval on TrustedRouter</text>
<text x="24" y="50" font-family="Inter, Arial, sans-serif" font-size="12" fill="#4b5563">Average of prompt/instruction strict+loose accuracy. Higher is better.</text>
<text x="24" y="69" font-family="Inter, Arial, sans-serif" font-size="12" fill="#111827">1. google/gemini-3.1-pro-preview</text>
<rect x="300" y="56" width="380" height="16" rx="4" fill="#e5e7eb"/>
<rect x="300" y="56" width="373" height="16" rx="4" fill="#2563eb"/>
<text x="692" y="69" font-family="Inter, Arial, sans-serif" font-size="12" font-weight="700" fill="#111827">98.4</text>
<text x="24" y="96" font-family="Inter, Arial, sans-serif" font-size="12" fill="#111827">2. openai/gpt-5.5</text>
<rect x="300" y="83" width="380" height="16" rx="4" fill="#e5e7eb"/>
<rect x="300" y="83" width="366" height="16" rx="4" fill="#2563eb"/>
<text x="692" y="96" font-family="Inter, Arial, sans-serif" font-size="12" font-weight="700" fill="#111827">96.4</text>
<text x="24" y="123" font-family="Inter, Arial, sans-serif" font-size="12" fill="#111827">3. tencent/hy3-preview</text>
<rect x="300" y="110" width="380" height="16" rx="4" fill="#e5e7eb"/>
<rect x="300" y="110" width="349" height="16" rx="4" fill="#2563eb"/>
<text x="692" y="123" font-family="Inter, Arial, sans-serif" font-size="12" font-weight="700" fill="#111827">92</text>
<text x="24" y="150" font-family="Inter, Arial, sans-serif" font-size="12" fill="#111827">4. anthropic/claude-opus-4.8</text>
<rect x="300" y="137" width="380" height="16" rx="4" fill="#e5e7eb"/>
<rect x="300" y="137" width="346" height="16" rx="4" fill="#2563eb"/>
<text x="692" y="150" font-family="Inter, Arial, sans-serif" font-size="12" font-weight="700" fill="#111827">91.1</text>
<text x="24" y="177" font-family="Inter, Arial, sans-serif" font-size="12" fill="#111827">5. deepseek/deepseek-v4-flash</text>
<rect x="300" y="164" width="380" height="16" rx="4" fill="#e5e7eb"/>
<rect x="300" y="164" width="192" height="16" rx="4" fill="#f97316"/>
<text x="692" y="177" font-family="Inter, Arial, sans-serif" font-size="12" font-weight="700" fill="#111827">50.6</text>
<text x="24" y="204" font-family="Inter, Arial, sans-serif" font-size="12" fill="#111827">6. xiaomi/mimo-v2.5</text>
<rect x="300" y="191" width="380" height="16" rx="4" fill="#e5e7eb"/>
<rect x="300" y="191" width="142" height="16" rx="4" fill="#f97316"/>
<text x="692" y="204" font-family="Inter, Arial, sans-serif" font-size="12" font-weight="700" fill="#111827">37.6</text>
<text x="24" y="231" font-family="Inter, Arial, sans-serif" font-size="12" fill="#111827">7. deepseek/deepseek-v4-pro</text>
<rect x="300" y="218" width="380" height="16" rx="4" fill="#e5e7eb"/>
<rect x="300" y="218" width="138" height="16" rx="4" fill="#f97316"/>
<text x="692" y="231" font-family="Inter, Arial, sans-serif" font-size="12" font-weight="700" fill="#111827">36.5</text>
<text x="24" y="258" font-family="Inter, Arial, sans-serif" font-size="12" fill="#111827">8. moonshotai/kimi-k2.7-code</text>
<rect x="300" y="245" width="380" height="16" rx="4" fill="#e5e7eb"/>
<rect x="300" y="245" width="138" height="16" rx="4" fill="#f97316"/>
<text x="692" y="258" font-family="Inter, Arial, sans-serif" font-size="12" font-weight="700" fill="#111827">36.5</text>
<text x="24" y="285" font-family="Inter, Arial, sans-serif" font-size="12" fill="#111827">9. z-ai/glm-5</text>
<rect x="300" y="272" width="380" height="16" rx="4" fill="#e5e7eb"/>
<rect x="300" y="272" width="121" height="16" rx="4" fill="#dc2626"/>
<text x="692" y="285" font-family="Inter, Arial, sans-serif" font-size="12" font-weight="700" fill="#111827">32.1</text>
<text x="24" y="312" font-family="Inter, Arial, sans-serif" font-size="12" fill="#111827">10. z-ai/glm-5.1</text>
<rect x="300" y="299" width="380" height="16" rx="4" fill="#e5e7eb"/>
<rect x="300" y="299" width="121" height="16" rx="4" fill="#dc2626"/>
<text x="692" y="312" font-family="Inter, Arial, sans-serif" font-size="12" font-weight="700" fill="#111827">32.1</text>
</svg>