<svg xmlns="http://www.w3.org/2000/svg" width="960" height="509" viewBox="0 0 960 509">
<rect width="100%" height="100%" fill="#ffffff"/>
<text x="24" y="30" font-family="Inter, Arial, sans-serif" font-size="22" font-weight="700" fill="#111827">MMLU-Pro on TrustedRouter</text>
<text x="24" y="50" font-family="Inter, Arial, sans-serif" font-size="12" fill="#4b5563">Ten-choice knowledge/reasoning MCQ, CoT letter-match (no judge). Higher is better.</text>
<text x="24" y="69" font-family="Inter, Arial, sans-serif" font-size="12" fill="#111827">1. anthropic/claude-opus-4.8</text>
<rect x="300" y="56" width="380" height="16" rx="4" fill="#e5e7eb"/>
<rect x="300" y="56" width="334" height="16" rx="4" fill="#2563eb"/>
<text x="692" y="69" font-family="Inter, Arial, sans-serif" font-size="12" font-weight="700" fill="#111827">88%</text>
<text x="24" y="96" font-family="Inter, Arial, sans-serif" font-size="12" fill="#111827">2. moonshotai/kimi-k2.6</text>
<rect x="300" y="83" width="380" height="16" rx="4" fill="#e5e7eb"/>
<rect x="300" y="83" width="331" height="16" rx="4" fill="#2563eb"/>
<text x="692" y="96" font-family="Inter, Arial, sans-serif" font-size="12" font-weight="700" fill="#111827">87.3%</text>
<text x="24" y="123" font-family="Inter, Arial, sans-serif" font-size="12" fill="#111827">3. moonshotai/kimi-k2.7-code</text>
<rect x="300" y="110" width="380" height="16" rx="4" fill="#e5e7eb"/>
<rect x="300" y="110" width="326" height="16" rx="4" fill="#2563eb"/>
<text x="692" y="123" font-family="Inter, Arial, sans-serif" font-size="12" font-weight="700" fill="#111827">86%</text>
<text x="24" y="150" font-family="Inter, Arial, sans-serif" font-size="12" fill="#111827">4. openai/gpt-5.5</text>
<rect x="300" y="137" width="380" height="16" rx="4" fill="#e5e7eb"/>
<rect x="300" y="137" width="324" height="16" rx="4" fill="#2563eb"/>
<text x="692" y="150" font-family="Inter, Arial, sans-serif" font-size="12" font-weight="700" fill="#111827">85.3%</text>
<text x="24" y="177" font-family="Inter, Arial, sans-serif" font-size="12" fill="#111827">5. deepseek/deepseek-v3.2</text>
<rect x="300" y="164" width="380" height="16" rx="4" fill="#e5e7eb"/>
<rect x="300" y="164" width="319" height="16" rx="4" fill="#2563eb"/>
<text x="692" y="177" font-family="Inter, Arial, sans-serif" font-size="12" font-weight="700" fill="#111827">84%</text>
<text x="24" y="204" font-family="Inter, Arial, sans-serif" font-size="12" fill="#111827">6. deepseek/deepseek-v4-flash</text>
<rect x="300" y="191" width="380" height="16" rx="4" fill="#e5e7eb"/>
<rect x="300" y="191" width="319" height="16" rx="4" fill="#2563eb"/>
<text x="692" y="204" font-family="Inter, Arial, sans-serif" font-size="12" font-weight="700" fill="#111827">84%</text>
<text x="24" y="231" font-family="Inter, Arial, sans-serif" font-size="12" fill="#111827">7. minimax/minimax-m3</text>
<rect x="300" y="218" width="380" height="16" rx="4" fill="#e5e7eb"/>
<rect x="300" y="218" width="319" height="16" rx="4" fill="#2563eb"/>
<text x="692" y="231" font-family="Inter, Arial, sans-serif" font-size="12" font-weight="700" fill="#111827">84%</text>
<text x="24" y="258" font-family="Inter, Arial, sans-serif" font-size="12" fill="#111827">8. deepseek/deepseek-v4-pro</text>
<rect x="300" y="245" width="380" height="16" rx="4" fill="#e5e7eb"/>
<rect x="300" y="245" width="316" height="16" rx="4" fill="#2563eb"/>
<text x="692" y="258" font-family="Inter, Arial, sans-serif" font-size="12" font-weight="700" fill="#111827">83.3%</text>
<text x="24" y="285" font-family="Inter, Arial, sans-serif" font-size="12" fill="#111827">9. xiaomi/mimo-v2.5</text>
<rect x="300" y="272" width="380" height="16" rx="4" fill="#e5e7eb"/>
<rect x="300" y="272" width="316" height="16" rx="4" fill="#2563eb"/>
<text x="692" y="285" font-family="Inter, Arial, sans-serif" font-size="12" font-weight="700" fill="#111827">83.3%</text>
<text x="24" y="312" font-family="Inter, Arial, sans-serif" font-size="12" fill="#111827">10. google/gemini-3.1-pro-preview</text>
<rect x="300" y="299" width="380" height="16" rx="4" fill="#e5e7eb"/>
<rect x="300" y="299" width="316" height="16" rx="4" fill="#2563eb"/>
<text x="692" y="312" font-family="Inter, Arial, sans-serif" font-size="12" font-weight="700" fill="#111827">83.3%</text>
<text x="24" y="339" font-family="Inter, Arial, sans-serif" font-size="12" fill="#111827">11. xiaomi/mimo-v2.5-pro</text>
<rect x="300" y="326" width="380" height="16" rx="4" fill="#e5e7eb"/>
<rect x="300" y="326" width="311" height="16" rx="4" fill="#2563eb"/>
<text x="692" y="339" font-family="Inter, Arial, sans-serif" font-size="12" font-weight="700" fill="#111827">82%</text>
<text x="24" y="366" font-family="Inter, Arial, sans-serif" font-size="12" fill="#111827">12. z-ai/glm-5</text>
<rect x="300" y="353" width="380" height="16" rx="4" fill="#e5e7eb"/>
<rect x="300" y="353" width="311" height="16" rx="4" fill="#2563eb"/>
<text x="692" y="366" font-family="Inter, Arial, sans-serif" font-size="12" font-weight="700" fill="#111827">82%</text>
<text x="24" y="393" font-family="Inter, Arial, sans-serif" font-size="12" fill="#111827">13. z-ai/glm-5.2</text>
<rect x="300" y="380" width="380" height="16" rx="4" fill="#e5e7eb"/>
<rect x="300" y="380" width="311" height="16" rx="4" fill="#2563eb"/>
<text x="692" y="393" font-family="Inter, Arial, sans-serif" font-size="12" font-weight="700" fill="#111827">82%</text>
<text x="24" y="420" font-family="Inter, Arial, sans-serif" font-size="12" fill="#111827">14. z-ai/glm-5.1</text>
<rect x="300" y="407" width="380" height="16" rx="4" fill="#e5e7eb"/>
<rect x="300" y="407" width="306" height="16" rx="4" fill="#2563eb"/>
<text x="692" y="420" font-family="Inter, Arial, sans-serif" font-size="12" font-weight="700" fill="#111827">80.7%</text>
<text x="24" y="447" font-family="Inter, Arial, sans-serif" font-size="12" fill="#111827">15. tencent/hy3-preview</text>
<rect x="300" y="434" width="380" height="16" rx="4" fill="#e5e7eb"/>
<rect x="300" y="434" width="288" height="16" rx="4" fill="#2563eb"/>
<text x="692" y="447" font-family="Inter, Arial, sans-serif" font-size="12" font-weight="700" fill="#111827">76%</text>
</svg>