<svg xmlns="http://www.w3.org/2000/svg" width="960" height="455" viewBox="0 0 960 455">
<rect width="100%" height="100%" fill="#ffffff"/>
<text x="24" y="30" font-family="Inter, Arial, sans-serif" font-size="22" font-weight="700" fill="#111827">SimpleQA Verified on TrustedRouter</text>
<text x="24" y="50" font-family="Inter, Arial, sans-serif" font-size="12" fill="#4b5563">Closed-book factuality F-score (no tools). Judge: google/gemini-2.5-flash. Higher is better.</text>
<text x="24" y="69" font-family="Inter, Arial, sans-serif" font-size="12" fill="#111827">1. deepseek/deepseek-v4-pro</text>
<rect x="300" y="56" width="380" height="16" rx="4" fill="#e5e7eb"/>
<rect x="300" y="56" width="199" height="16" rx="4" fill="#f97316"/>
<text x="692" y="69" font-family="Inter, Arial, sans-serif" font-size="12" font-weight="700" fill="#111827">52.4</text>
<text x="24" y="96" font-family="Inter, Arial, sans-serif" font-size="12" fill="#111827">2. anthropic/claude-opus-4.8</text>
<rect x="300" y="83" width="380" height="16" rx="4" fill="#e5e7eb"/>
<rect x="300" y="83" width="195" height="16" rx="4" fill="#f97316"/>
<text x="692" y="96" font-family="Inter, Arial, sans-serif" font-size="12" font-weight="700" fill="#111827">51.5</text>
<text x="24" y="123" font-family="Inter, Arial, sans-serif" font-size="12" fill="#111827">3. moonshotai/kimi-k2.7-code</text>
<rect x="300" y="110" width="380" height="16" rx="4" fill="#e5e7eb"/>
<rect x="300" y="110" width="138" height="16" rx="4" fill="#f97316"/>
<text x="692" y="123" font-family="Inter, Arial, sans-serif" font-size="12" font-weight="700" fill="#111827">36.4</text>
<text x="24" y="150" font-family="Inter, Arial, sans-serif" font-size="12" fill="#111827">4. deepseek/deepseek-v4-flash</text>
<rect x="300" y="137" width="380" height="16" rx="4" fill="#e5e7eb"/>
<rect x="300" y="137" width="134" height="16" rx="4" fill="#f97316"/>
<text x="692" y="150" font-family="Inter, Arial, sans-serif" font-size="12" font-weight="700" fill="#111827">35.4</text>
<text x="24" y="177" font-family="Inter, Arial, sans-serif" font-size="12" fill="#111827">5. xiaomi/mimo-v2.5-pro</text>
<rect x="300" y="164" width="380" height="16" rx="4" fill="#e5e7eb"/>
<rect x="300" y="164" width="127" height="16" rx="4" fill="#f97316"/>
<text x="692" y="177" font-family="Inter, Arial, sans-serif" font-size="12" font-weight="700" fill="#111827">33.6</text>
<text x="24" y="204" font-family="Inter, Arial, sans-serif" font-size="12" fill="#111827">6. moonshotai/kimi-k2.6</text>
<rect x="300" y="191" width="380" height="16" rx="4" fill="#e5e7eb"/>
<rect x="300" y="191" width="106" height="16" rx="4" fill="#dc2626"/>
<text x="692" y="204" font-family="Inter, Arial, sans-serif" font-size="12" font-weight="700" fill="#111827">28</text>
<text x="24" y="231" font-family="Inter, Arial, sans-serif" font-size="12" fill="#111827">7. tencent/hy3-preview</text>
<rect x="300" y="218" width="380" height="16" rx="4" fill="#e5e7eb"/>
<rect x="300" y="218" width="99" height="16" rx="4" fill="#dc2626"/>
<text x="692" y="231" font-family="Inter, Arial, sans-serif" font-size="12" font-weight="700" fill="#111827">26.3</text>
<text x="24" y="258" font-family="Inter, Arial, sans-serif" font-size="12" fill="#111827">8. z-ai/glm-5.2</text>
<rect x="300" y="245" width="380" height="16" rx="4" fill="#e5e7eb"/>
<rect x="300" y="245" width="93" height="16" rx="4" fill="#dc2626"/>
<text x="692" y="258" font-family="Inter, Arial, sans-serif" font-size="12" font-weight="700" fill="#111827">24.7</text>
<text x="24" y="285" font-family="Inter, Arial, sans-serif" font-size="12" fill="#111827">9. deepseek/deepseek-v3.2</text>
<rect x="300" y="272" width="380" height="16" rx="4" fill="#e5e7eb"/>
<rect x="300" y="272" width="93" height="16" rx="4" fill="#dc2626"/>
<text x="692" y="285" font-family="Inter, Arial, sans-serif" font-size="12" font-weight="700" fill="#111827">24.6</text>
<text x="24" y="312" font-family="Inter, Arial, sans-serif" font-size="12" fill="#111827">10. z-ai/glm-5.1</text>
<rect x="300" y="299" width="380" height="16" rx="4" fill="#e5e7eb"/>
<rect x="300" y="299" width="87" height="16" rx="4" fill="#dc2626"/>
<text x="692" y="312" font-family="Inter, Arial, sans-serif" font-size="12" font-weight="700" fill="#111827">23.1</text>
<text x="24" y="339" font-family="Inter, Arial, sans-serif" font-size="12" fill="#111827">11. minimax/minimax-m3</text>
<rect x="300" y="326" width="380" height="16" rx="4" fill="#e5e7eb"/>
<rect x="300" y="326" width="86" height="16" rx="4" fill="#dc2626"/>
<text x="692" y="339" font-family="Inter, Arial, sans-serif" font-size="12" font-weight="700" fill="#111827">22.8</text>
<text x="24" y="366" font-family="Inter, Arial, sans-serif" font-size="12" fill="#111827">12. z-ai/glm-5</text>
<rect x="300" y="353" width="380" height="16" rx="4" fill="#e5e7eb"/>
<rect x="300" y="353" width="82" height="16" rx="4" fill="#dc2626"/>
<text x="692" y="366" font-family="Inter, Arial, sans-serif" font-size="12" font-weight="700" fill="#111827">21.8</text>
<text x="24" y="393" font-family="Inter, Arial, sans-serif" font-size="12" fill="#111827">13. xiaomi/mimo-v2.5</text>
<rect x="300" y="380" width="380" height="16" rx="4" fill="#e5e7eb"/>
<rect x="300" y="380" width="79" height="16" rx="4" fill="#dc2626"/>
<text x="692" y="393" font-family="Inter, Arial, sans-serif" font-size="12" font-weight="700" fill="#111827">20.8</text>
</svg>